<svg width="1793" height="382" viewBox="0 0 1793 382" fill="none" xmlns="http://www.w3.org/2000/svg">
<g clip-path="url(#clip0_2:2)">
<path d="M663.176 217.616V109.616H579.08V149.36H617.96V186.512C609.32 190.256 598.664 191.984 587.144 191.984C547.112 191.984 524.936 165.2 524.936 127.76C524.936 91.184 550.28 64.112 584.84 64.112C604.712 64.112 621.128 72.176 630.632 83.12L661.736 47.696C644.744 31.28 615.08 20.624 583.112 20.624C520.904 20.624 472.52 62.384 472.52 127.76C472.52 191.984 519.464 235.184 584.552 235.184C615.944 235.184 643.304 227.984 663.176 217.616ZM787.176 83.696C784.872 82.832 780.84 82.544 777.096 82.544C759.528 82.544 745.416 92.912 738.216 107.312H737.64V86.576H692.136V230H739.368V156.272C739.368 144.464 747.72 123.728 773.064 123.728C776.808 123.728 780.84 124.016 785.16 125.168L787.176 83.696ZM830.637 141.872C831.789 127.184 845.037 114.512 863.181 114.512C881.901 114.512 891.405 126.896 891.405 141.872H830.637ZM934.893 160.016C934.893 111.056 905.229 81.968 862.893 81.968C819.405 81.968 785.421 111.92 785.421 158.864C785.421 207.248 821.133 234.608 864.333 234.608C893.421 234.608 915.885 223.664 929.421 204.08L896.589 183.344C890.253 191.984 879.885 198.32 864.909 198.32C847.917 198.32 832.077 187.088 830.637 171.248H934.605C934.893 167.792 934.893 163.76 934.893 160.016ZM993.559 141.872C994.711 127.184 1007.96 114.512 1026.1 114.512C1044.82 114.512 1054.33 126.896 1054.33 141.872H993.559ZM1097.82 160.016C1097.82 111.056 1068.15 81.968 1025.82 81.968C982.327 81.968 948.343 111.92 948.343 158.864C948.343 207.248 984.055 234.608 1027.26 234.608C1056.34 234.608 1078.81 223.664 1092.34 204.08L1059.51 183.344C1053.18 191.984 1042.81 198.32 1027.83 198.32C1010.84 198.32 994.999 187.088 993.559 171.248H1097.53C1097.82 167.792 1097.82 163.76 1097.82 160.016ZM1260.16 230V141.296C1260.16 112.496 1246.34 82.544 1207.75 82.544C1187.87 82.544 1171.46 93.776 1164.83 106.448H1164.26V86.576H1118.47V230H1165.99V152.24C1165.99 135.824 1174.63 121.424 1191.33 121.424C1208.32 121.424 1212.64 135.824 1212.64 151.664V230H1260.16ZM1397.6 102.128C1383.49 88.88 1361.31 81.968 1340 81.968C1312.64 81.968 1280.38 95.792 1280.38 130.064C1280.38 157.136 1302.27 167.216 1322.14 171.824C1341.73 176.432 1350.65 179.312 1350.65 188.24C1350.65 197.456 1341.44 200.624 1333.66 200.624C1319.84 200.624 1306.88 193.712 1298.53 184.496L1272.03 212.432C1287.01 226.832 1311.2 234.608 1334.53 234.608C1363.9 234.608 1395.87 221.936 1395.87 185.648C1395.87 157.712 1371.97 146.768 1350.08 141.872C1331.65 137.84 1323.87 135.536 1323.87 127.472C1323.87 119.12 1332.8 115.952 1341.73 115.952C1353.25 115.952 1364.19 121.712 1371.68 128.912L1397.6 102.128Z" fill="white"/>
<path d="M1425 40C1425 17.9086 1442.91 0 1465 0H1753C1775.09 0 1793 17.9086 1793 40V230C1793 252.091 1775.09 270 1753 270H1465C1442.91 270 1425 252.091 1425 230V40Z" fill="#66CC66"/>
<path d="M1601.75 220V183.5H1519.5V146.75H1593V112.5H1519.5V79.25H1597.25V43H1478.25V220H1601.75ZM1758.61 220L1709.36 154.75L1754.11 95.5H1707.86L1684.36 128.75L1661.11 95.5H1613.36L1658.36 154.75L1608.61 220H1656.11L1683.61 181.75L1710.36 220H1758.61Z" fill="black"/>
<path d="M50.3008 59.4492C44.2891 62.418 41.9141 69.6914 45.0312 75.6289C45.9961 77.4844 47.7031 79.6367 48.8164 80.4531C50.8945 82.0117 51.3398 82.0117 147.008 82.2344L243.047 82.3828L243.195 126.395L243.418 170.48L245.496 173.152C249.504 178.348 246.684 178.125 299.973 178.125H348.066L356.824 189.332L365.508 200.539V231.266V262.066L354.672 261.844L343.836 261.621L342.203 257.094C339.605 250.043 336.785 245.813 330.699 239.652C311.996 220.949 281.789 220.949 263.086 239.727C257.371 245.367 253.066 252.27 251.137 258.801L250.246 261.992H215.215H180.258L178.996 258.059C176.027 248.781 167.047 237.574 158.289 232.453C144.188 224.066 127.043 223.473 111.754 230.82C101.141 235.941 90.6758 247.891 87.5586 258.578L86.668 261.621L68.9297 261.992C51.7109 262.363 51.1172 262.438 48.668 264.145C45.9219 266.148 43.4727 270.824 43.3984 274.238C43.3984 277.949 46.3672 282.922 49.707 284.777C52.5273 286.41 53.4922 286.484 69.9688 286.484C85.5547 286.484 87.1875 286.633 87.1875 287.746C87.1875 288.414 88.5234 291.828 90.2305 295.242C96.3906 308.008 109.453 318.102 123.555 321.07C134.836 323.445 148.566 321.07 158.66 314.91C167.27 309.715 174.914 300.438 178.477 291.012L180.109 286.484H215.215H250.246L251.879 290.938C253.883 296.43 259.82 305.41 263.902 309.121C272.438 316.766 282.977 321.219 294.629 321.887C303.312 322.406 310.512 320.848 318.676 316.84C329.289 311.57 339.531 299.918 342.574 289.602L343.465 286.484H362.02C379.09 286.484 380.871 286.336 383.691 285C385.621 284.035 387.328 282.477 388.367 280.621C390 277.727 390 277.578 390 235.125V192.523L387.848 189.184C386.66 187.402 381.168 180.055 375.602 172.93L365.508 159.941L346.953 123.129C336.785 102.941 327.805 85.7969 326.988 85.0547C323.574 81.9375 321.051 81.7148 293.738 81.6406H267.539V73.9219C267.539 65.5352 266.648 63.1602 262.121 59.8203L260.043 58.2617L156.73 58.0391L53.418 57.8906L50.3008 59.4492ZM322.684 130.254L334.336 153.633H300.938H267.539V130.254V106.875H289.285H310.957L322.684 130.254ZM137.805 250.934C145.227 252.492 151.758 257.688 154.875 264.59C157.102 269.637 157.176 277.949 154.949 282.922C148.047 298.211 128.602 301.922 116.875 290.195C103.961 277.281 109.973 255.98 127.934 251.156C132.312 249.969 133.055 249.969 137.805 250.934ZM307.395 253.16C321.348 259.914 324.613 278.766 313.852 289.824C304.5 299.473 290.398 299.621 280.824 290.27C273.328 282.848 271.547 273.422 275.852 264.219C281.641 251.824 295 247.148 307.395 253.16Z" fill="white"/>
<path d="M36.2735 108.285C27.6641 112.219 26.9219 125.133 35.1602 129.734L38.0547 131.367H92.6797C152.945 131.367 149.828 131.59 153.539 126.766C158.363 120.309 155.469 110.586 147.824 107.691C146.414 107.098 128.305 106.875 92.5313 106.875C42.211 106.875 39.168 106.949 36.2735 108.285Z" fill="white"/>
<path d="M16.0859 155.637C12.3008 157.492 10.4453 160.684 10.1484 165.879C9.92579 169.59 10.1484 170.703 11.6328 172.855C12.5234 174.266 14.3047 176.121 15.418 176.938C17.4961 178.496 17.8672 178.496 73.0859 178.496C128.305 178.496 128.676 178.496 130.754 176.938C131.867 176.121 133.648 174.266 134.539 172.855C136.023 170.703 136.246 169.59 136.023 165.879C135.727 160.609 133.797 157.418 129.938 155.562C127.711 154.523 121.699 154.375 72.9375 154.375C24.3242 154.375 18.2383 154.523 16.0859 155.637Z" fill="white"/>
<path d="M36.2734 202.543C31.6719 204.621 29.668 207.961 29.668 213.527C29.668 218.648 30.9297 221.023 35.2344 223.918C37.6836 225.625 37.7578 225.625 68.8555 225.625C99.2109 225.625 100.027 225.551 102.773 224.066C110.195 219.91 110.789 208.926 103.812 203.656L101.066 201.504L70.1914 201.355C41.3203 201.133 39.0938 201.207 36.2734 202.543Z" fill="white"/>
<path d="M778.35 276.12H767.46V354H813.11V344.32H778.35V276.12ZM948.758 327.82C948.758 311.76 936.548 300.43 920.598 300.43C904.648 300.43 892.548 311.76 892.548 327.82C892.548 343.88 904.648 355.43 920.598 355.43C936.548 355.43 948.758 343.88 948.758 327.82ZM937.978 327.82C937.978 337.72 931.818 346.74 920.598 346.74C909.488 346.74 903.218 337.72 903.218 327.82C903.218 317.92 909.488 309.01 920.598 309.01C931.818 309.01 937.978 317.92 937.978 327.82ZM1035.37 370.94C1041.86 376.88 1051.87 380.4 1060.89 380.4C1082.56 380.4 1089.71 366.54 1089.71 351.36V301.86H1079.7V310.22H1079.48C1075.52 303.73 1068.15 300.43 1060.67 300.43C1044.72 300.43 1034.49 312.64 1034.49 327.6C1034.49 342.56 1044.83 354.44 1060.78 354.44C1068.15 354.44 1075.3 351.25 1079.15 345.42H1079.37V352.13C1079.37 362.91 1074.75 371.38 1061 371.38C1053.85 371.38 1046.48 367.97 1041.97 362.91L1035.37 370.94ZM1045.16 327.38C1045.16 317.37 1051.54 309.01 1062.43 309.01C1072.99 309.01 1080.14 317.48 1080.14 327.38C1080.14 337.72 1073.1 345.75 1062.43 345.75C1051.54 345.75 1045.16 336.95 1045.16 327.38ZM1192.65 301.86H1182.31V354H1192.65V301.86ZM1194.41 283.05C1194.41 279.2 1191.22 276.34 1187.48 276.34C1183.74 276.34 1180.66 279.31 1180.66 283.05C1180.66 286.68 1183.74 289.65 1187.48 289.65C1191.22 289.65 1194.41 286.79 1194.41 283.05ZM1320.78 309.01C1317.04 303.4 1309.23 300.43 1301.86 300.43C1291.96 300.43 1282.17 305.16 1282.17 316.38C1282.17 326.17 1290.42 329.14 1297.35 330.79C1306.26 332.88 1310.99 334.64 1310.99 339.48C1310.99 345.2 1305.82 347.07 1300.65 347.07C1294.82 347.07 1289.54 343.88 1286.79 339.81L1279.42 346.08C1284.37 352.35 1292.51 355.43 1300.43 355.43C1310.99 355.43 1321.22 350.92 1321.22 338.6C1321.22 329.47 1313.63 325.4 1303.73 323.2C1295.81 321.44 1291.85 319.79 1291.85 315.39C1291.85 310.44 1296.8 308.57 1301.53 308.57C1306.81 308.57 1311.32 311.32 1313.63 315.06L1320.78 309.01ZM1434.66 301.86H1420.8V286.9H1410.57V301.86H1400.56V310.33H1410.57V338.6C1410.57 349.38 1415.96 354.88 1425.75 354.88C1428.94 354.88 1432.13 354.33 1434.55 353.45L1434.22 344.98C1432.46 345.86 1430.04 346.3 1428.17 346.3C1423 346.3 1420.8 343.77 1420.8 337.5V310.33H1434.66V301.86ZM1530.59 301.86H1520.25V354H1530.59V301.86ZM1532.35 283.05C1532.35 279.2 1529.16 276.34 1525.42 276.34C1521.68 276.34 1518.6 279.31 1518.6 283.05C1518.6 286.68 1521.68 289.65 1525.42 289.65C1529.16 289.65 1532.35 286.79 1532.35 283.05ZM1667.41 309.01C1663.12 303.4 1655.2 300.43 1647.83 300.43C1631.88 300.43 1620 311.54 1620 327.93C1620 344.54 1631.99 355.43 1648.05 355.43C1656.41 355.43 1663.12 352.35 1667.52 347.29L1660.59 341.02C1657.84 344.54 1653.33 346.74 1648.05 346.74C1637.16 346.74 1630.89 337.83 1630.89 327.93C1630.89 317.92 1637.16 309.12 1647.94 309.12C1652.89 309.12 1657.73 311.65 1659.93 315.06L1667.41 309.01ZM1787.88 309.01C1784.14 303.4 1776.33 300.43 1768.96 300.43C1759.06 300.43 1749.27 305.16 1749.27 316.38C1749.27 326.17 1757.52 329.14 1764.45 330.79C1773.36 332.88 1778.09 334.64 1778.09 339.48C1778.09 345.2 1772.92 347.07 1767.75 347.07C1761.92 347.07 1756.64 343.88 1753.89 339.81L1746.52 346.08C1751.47 352.35 1759.61 355.43 1767.53 355.43C1778.09 355.43 1788.32 350.92 1788.32 338.6C1788.32 329.47 1780.73 325.4 1770.83 323.2C1762.91 321.44 1758.95 319.79 1758.95 315.39C1758.95 310.44 1763.9 308.57 1768.63 308.57C1773.91 308.57 1778.42 311.32 1780.73 315.06L1787.88 309.01Z" fill="white"/>
</g>
<defs>
<clipPath id="clip0_2:2">
<rect width="1793" height="382" fill="white"/>
</clipPath>
</defs>
</svg>
