<svg aria-hidden="true" focusable="false" data-prefix="fad" data-icon="box-alt" role="img" xmlns="http://www.w3.org/2000/svg" viewBox="0 0 448 512" class="svg-inline--fa fa-box-alt fa-w-14 fa-7x"><g class="fa-group"><path fill="currentColor" d="M256 32l32 128v112a16 16 0 0 1-16 16h-96a16 16 0 0 1-16-16V160l32-128z" class="fa-secondary"></path><path fill="currentColor" d="M446.7 160c.4-.5.5-.7.9-1.2L391.3 53.9A32 32 0 0 0 360.9 32H256l32 128zM160 160l32-128H87.1a32 32 0 0 0-30.4 21.9L.4 158.8c.4.5.5.7.9 1.2zm128 32v80a16 16 0 0 1-16 16h-96a16 16 0 0 1-16-16v-80H0v256a32 32 0 0 0 32 32h384a32 32 0 0 0 32-32V192z" class="fa-primary"></path></g></svg>